<mxfile host="app.diagrams.net" modified="2023-01-05T08:50:05.202Z" agent="5.0 (Macintosh; Intel Mac OS X 10_15_7) AppleWebKit/537.36 (KHTML, like Gecko) Chrome/99.0.4844.84 Safari/537.36" etag="4eXmk2z9iVpwKo_fYyin" version="20.8.1" type="github">
  <diagram id="prtHgNgQTEPvFCAcTncT" name="Page-1">
    <mxGraphModel dx="1434" dy="796" grid="0" gridSize="10" guides="1" tooltips="1" connect="1" arrows="1" fold="1" page="1" pageScale="1" pageWidth="827" pageHeight="1169" math="0" shadow="0">
      <root>
        <mxCell id="0" />
        <mxCell id="1" parent="0" />
        <mxCell id="fzO1kDVEjoXicjIBNI7i-1" value="标品接入流程指引" style="swimlane;childLayout=stackLayout;resizeParent=1;resizeParentMax=0;startSize=20;html=1;" vertex="1" parent="1">
          <mxGeometry x="54" y="140" width="720" height="400" as="geometry" />
        </mxCell>
        <mxCell id="fzO1kDVEjoXicjIBNI7i-2" value="UI设计" style="swimlane;startSize=20;html=1;" vertex="1" parent="fzO1kDVEjoXicjIBNI7i-1">
          <mxGeometry y="20" width="120" height="380" as="geometry">
            <mxRectangle y="20" width="40" height="460" as="alternateBounds" />
          </mxGeometry>
        </mxCell>
        <mxCell id="fzO1kDVEjoXicjIBNI7i-13" style="edgeStyle=orthogonalEdgeStyle;rounded=0;orthogonalLoop=1;jettySize=auto;html=1;exitX=0.5;exitY=1;exitDx=0;exitDy=0;entryX=0.5;entryY=0;entryDx=0;entryDy=0;" edge="1" parent="fzO1kDVEjoXicjIBNI7i-2" source="fzO1kDVEjoXicjIBNI7i-9" target="fzO1kDVEjoXicjIBNI7i-10">
          <mxGeometry relative="1" as="geometry" />
        </mxCell>
        <mxCell id="fzO1kDVEjoXicjIBNI7i-14" style="edgeStyle=orthogonalEdgeStyle;rounded=0;orthogonalLoop=1;jettySize=auto;html=1;exitX=0.5;exitY=1;exitDx=0;exitDy=0;entryX=0.5;entryY=0;entryDx=0;entryDy=0;" edge="1" parent="fzO1kDVEjoXicjIBNI7i-2" source="fzO1kDVEjoXicjIBNI7i-9" target="fzO1kDVEjoXicjIBNI7i-11">
          <mxGeometry relative="1" as="geometry" />
        </mxCell>
        <mxCell id="fzO1kDVEjoXicjIBNI7i-9" value="&lt;br&gt;&lt;br&gt;UI" style="shape=actor;whiteSpace=wrap;html=1;fillColor=#f8cecc;strokeColor=#b85450;" vertex="1" parent="fzO1kDVEjoXicjIBNI7i-2">
          <mxGeometry x="35.999999999999545" y="60" width="40" height="60" as="geometry" />
        </mxCell>
        <mxCell id="fzO1kDVEjoXicjIBNI7i-10" value="&lt;br&gt;&lt;br&gt;业务线前端" style="shape=actor;whiteSpace=wrap;html=1;fillColor=#dae8fc;strokeColor=#6c8ebf;" vertex="1" parent="fzO1kDVEjoXicjIBNI7i-2">
          <mxGeometry x="5.999999999999545" y="150" width="40" height="60" as="geometry" />
        </mxCell>
        <mxCell id="fzO1kDVEjoXicjIBNI7i-11" value="&lt;br&gt;&lt;br&gt;标品&lt;br&gt;前端" style="shape=actor;whiteSpace=wrap;html=1;fillColor=#d5e8d4;strokeColor=#82b366;" vertex="1" parent="fzO1kDVEjoXicjIBNI7i-2">
          <mxGeometry x="65.99999999999955" y="150" width="40" height="60" as="geometry" />
        </mxCell>
        <mxCell id="fzO1kDVEjoXicjIBNI7i-16" value="&lt;span style=&quot;&quot;&gt;UI同学需与业务线前端以及标品前端沟通确定可复用标品部分&lt;/span&gt;" style="whiteSpace=wrap;html=1;" vertex="1" parent="fzO1kDVEjoXicjIBNI7i-2">
          <mxGeometry x="-4.547473508864641e-13" y="250" width="120" height="60" as="geometry" />
        </mxCell>
        <mxCell id="fzO1kDVEjoXicjIBNI7i-3" value="需求评审" style="swimlane;startSize=20;html=1;" vertex="1" parent="fzO1kDVEjoXicjIBNI7i-1">
          <mxGeometry x="120" y="20" width="120" height="380" as="geometry">
            <mxRectangle x="120" y="20" width="40" height="460" as="alternateBounds" />
          </mxGeometry>
        </mxCell>
        <mxCell id="fzO1kDVEjoXicjIBNI7i-17" value="&lt;br&gt;&lt;br&gt;业务线前端" style="shape=actor;whiteSpace=wrap;html=1;fillColor=#dae8fc;strokeColor=#6c8ebf;" vertex="1" parent="fzO1kDVEjoXicjIBNI7i-3">
          <mxGeometry x="9.999999999999545" y="50" width="40" height="60" as="geometry" />
        </mxCell>
        <mxCell id="fzO1kDVEjoXicjIBNI7i-18" value="&lt;br&gt;&lt;br&gt;标品&lt;br&gt;前端" style="shape=actor;whiteSpace=wrap;html=1;fillColor=#d5e8d4;strokeColor=#82b366;" vertex="1" parent="fzO1kDVEjoXicjIBNI7i-3">
          <mxGeometry x="69.99999999999955" y="50" width="40" height="60" as="geometry" />
        </mxCell>
        <mxCell id="fzO1kDVEjoXicjIBNI7i-19" value="提前评估接入标品部分的内容，与标品现有流程的差异，并且在评审会上提出建议" style="whiteSpace=wrap;html=1;" vertex="1" parent="fzO1kDVEjoXicjIBNI7i-3">
          <mxGeometry x="-4.547473508864641e-13" y="170" width="120" height="60" as="geometry" />
        </mxCell>
        <mxCell id="fzO1kDVEjoXicjIBNI7i-4" value="设计方案&amp;amp;&amp;amp;排期" style="swimlane;startSize=20;html=1;" vertex="1" parent="fzO1kDVEjoXicjIBNI7i-1">
          <mxGeometry x="240" y="20" width="120" height="380" as="geometry">
            <mxRectangle x="240" y="20" width="40" height="460" as="alternateBounds" />
          </mxGeometry>
        </mxCell>
        <mxCell id="fzO1kDVEjoXicjIBNI7i-20" value="&lt;br&gt;&lt;br&gt;业务线前端" style="shape=actor;whiteSpace=wrap;html=1;fillColor=#dae8fc;strokeColor=#6c8ebf;" vertex="1" parent="fzO1kDVEjoXicjIBNI7i-4">
          <mxGeometry x="9.999999999999545" y="50" width="40" height="60" as="geometry" />
        </mxCell>
        <mxCell id="fzO1kDVEjoXicjIBNI7i-21" value="&lt;br&gt;&lt;br&gt;标品&lt;br&gt;前端" style="shape=actor;whiteSpace=wrap;html=1;fillColor=#d5e8d4;strokeColor=#82b366;" vertex="1" parent="fzO1kDVEjoXicjIBNI7i-4">
          <mxGeometry x="69.99999999999955" y="50" width="40" height="60" as="geometry" />
        </mxCell>
        <mxCell id="fzO1kDVEjoXicjIBNI7i-22" value="业务线前端负责项目整体方案&lt;br&gt;标品侧给出标品接入方案" style="whiteSpace=wrap;html=1;" vertex="1" parent="fzO1kDVEjoXicjIBNI7i-4">
          <mxGeometry x="-4.547473508864641e-13" y="150" width="120" height="60" as="geometry" />
        </mxCell>
        <mxCell id="fzO1kDVEjoXicjIBNI7i-23" value="业务线前端负责项目整体排期计划，以及进度，风险把控，资源协调。关键时间节点要及时同步相关人员" style="whiteSpace=wrap;html=1;" vertex="1" parent="fzO1kDVEjoXicjIBNI7i-4">
          <mxGeometry x="-4.547473508864641e-13" y="250" width="120" height="100" as="geometry" />
        </mxCell>
        <mxCell id="fzO1kDVEjoXicjIBNI7i-5" value="开发" style="swimlane;startSize=20;html=1;" vertex="1" parent="fzO1kDVEjoXicjIBNI7i-1">
          <mxGeometry x="360" y="20" width="120" height="380" as="geometry">
            <mxRectangle x="360" y="20" width="40" height="460" as="alternateBounds" />
          </mxGeometry>
        </mxCell>
        <mxCell id="fzO1kDVEjoXicjIBNI7i-24" value="&lt;br&gt;&lt;br&gt;业务线前端" style="shape=actor;whiteSpace=wrap;html=1;fillColor=#dae8fc;strokeColor=#6c8ebf;" vertex="1" parent="fzO1kDVEjoXicjIBNI7i-5">
          <mxGeometry x="9.999999999999545" y="50" width="40" height="60" as="geometry" />
        </mxCell>
        <mxCell id="fzO1kDVEjoXicjIBNI7i-25" value="&lt;br&gt;&lt;br&gt;标品&lt;br&gt;前端" style="shape=actor;whiteSpace=wrap;html=1;fillColor=#d5e8d4;strokeColor=#82b366;" vertex="1" parent="fzO1kDVEjoXicjIBNI7i-5">
          <mxGeometry x="69.99999999999955" y="50" width="40" height="60" as="geometry" />
        </mxCell>
        <mxCell id="fzO1kDVEjoXicjIBNI7i-27" value="标品前端负责标品相关改动的开发联调&lt;br&gt;业务线前端负责整体流程的联调" style="whiteSpace=wrap;html=1;" vertex="1" parent="fzO1kDVEjoXicjIBNI7i-5">
          <mxGeometry x="-4.547473508864641e-13" y="160" width="120" height="60" as="geometry" />
        </mxCell>
        <mxCell id="fzO1kDVEjoXicjIBNI7i-6" value="测试" style="swimlane;startSize=20;html=1;" vertex="1" parent="fzO1kDVEjoXicjIBNI7i-1">
          <mxGeometry x="480" y="20" width="120" height="380" as="geometry">
            <mxRectangle x="480" y="20" width="40" height="460" as="alternateBounds" />
          </mxGeometry>
        </mxCell>
        <mxCell id="fzO1kDVEjoXicjIBNI7i-37" style="edgeStyle=orthogonalEdgeStyle;rounded=0;orthogonalLoop=1;jettySize=auto;html=1;exitX=0.5;exitY=1;exitDx=0;exitDy=0;" edge="1" parent="fzO1kDVEjoXicjIBNI7i-6" source="fzO1kDVEjoXicjIBNI7i-28" target="fzO1kDVEjoXicjIBNI7i-29">
          <mxGeometry relative="1" as="geometry" />
        </mxCell>
        <mxCell id="fzO1kDVEjoXicjIBNI7i-28" value="&lt;br&gt;&lt;br&gt;业务线前端" style="shape=actor;whiteSpace=wrap;html=1;fillColor=#dae8fc;strokeColor=#6c8ebf;" vertex="1" parent="fzO1kDVEjoXicjIBNI7i-6">
          <mxGeometry x="67.99999999999955" y="48" width="40" height="60" as="geometry" />
        </mxCell>
        <mxCell id="fzO1kDVEjoXicjIBNI7i-29" value="&lt;br&gt;&lt;br&gt;标品&lt;br&gt;前端" style="shape=actor;whiteSpace=wrap;html=1;fillColor=#d5e8d4;strokeColor=#82b366;" vertex="1" parent="fzO1kDVEjoXicjIBNI7i-6">
          <mxGeometry x="67.99999999999955" y="130" width="40" height="60" as="geometry" />
        </mxCell>
        <mxCell id="fzO1kDVEjoXicjIBNI7i-30" value="&lt;p class=&quot;sl-paragraph&quot;&gt;测试问题，优先由业务线前端进行问题定位，确定是标品侧的问题，或者无法定位问题时可以寻找标品前端支持&lt;/p&gt;" style="whiteSpace=wrap;html=1;" vertex="1" parent="fzO1kDVEjoXicjIBNI7i-6">
          <mxGeometry y="200" width="120" height="110" as="geometry" />
        </mxCell>
        <mxCell id="fzO1kDVEjoXicjIBNI7i-36" style="edgeStyle=orthogonalEdgeStyle;rounded=0;orthogonalLoop=1;jettySize=auto;html=1;exitX=0.9;exitY=0.5;exitDx=0;exitDy=0;exitPerimeter=0;entryX=0.1;entryY=0.5;entryDx=0;entryDy=0;entryPerimeter=0;" edge="1" parent="fzO1kDVEjoXicjIBNI7i-6" source="fzO1kDVEjoXicjIBNI7i-35" target="fzO1kDVEjoXicjIBNI7i-28">
          <mxGeometry relative="1" as="geometry" />
        </mxCell>
        <mxCell id="fzO1kDVEjoXicjIBNI7i-35" value="&lt;br&gt;&lt;br&gt;测试" style="shape=actor;whiteSpace=wrap;html=1;fillColor=#fff2cc;strokeColor=#d6b656;" vertex="1" parent="fzO1kDVEjoXicjIBNI7i-6">
          <mxGeometry x="8.999999999999545" y="48" width="40" height="60" as="geometry" />
        </mxCell>
        <mxCell id="fzO1kDVEjoXicjIBNI7i-7" value="上线" style="swimlane;startSize=20;html=1;" vertex="1" parent="fzO1kDVEjoXicjIBNI7i-1">
          <mxGeometry x="600" y="20" width="120" height="380" as="geometry">
            <mxRectangle x="600" y="20" width="40" height="460" as="alternateBounds" />
          </mxGeometry>
        </mxCell>
        <mxCell id="fzO1kDVEjoXicjIBNI7i-31" value="&lt;br&gt;&lt;br&gt;业务线前端" style="shape=actor;whiteSpace=wrap;html=1;fillColor=#dae8fc;strokeColor=#6c8ebf;" vertex="1" parent="fzO1kDVEjoXicjIBNI7i-7">
          <mxGeometry x="9.999999999999545" y="50" width="40" height="60" as="geometry" />
        </mxCell>
        <mxCell id="fzO1kDVEjoXicjIBNI7i-33" value="&lt;br&gt;&lt;br&gt;测试" style="shape=actor;whiteSpace=wrap;html=1;fillColor=#fff2cc;strokeColor=#d6b656;" vertex="1" parent="fzO1kDVEjoXicjIBNI7i-7">
          <mxGeometry x="71.99999999999955" y="50" width="40" height="60" as="geometry" />
        </mxCell>
        <mxCell id="fzO1kDVEjoXicjIBNI7i-34" value="业务线前端需提前了解标品上线周期，并评估是否符合业务线预期，如果不符，需向项目经理提出申请进行资源协调" style="whiteSpace=wrap;html=1;" vertex="1" parent="fzO1kDVEjoXicjIBNI7i-7">
          <mxGeometry y="230" width="120" height="120" as="geometry" />
        </mxCell>
      </root>
    </mxGraphModel>
  </diagram>
</mxfile>
